<?xml version="1.0" standalone="no"?><!DOCTYPE svg PUBLIC "-//W3C//DTD SVG 1.1//EN" "http://www.w3.org/Graphics/SVG/1.1/DTD/svg11.dtd"><svg t="1653989819204" class="icon" viewBox="0 0 1024 1024" version="1.1" xmlns="http://www.w3.org/2000/svg" p-id="14724" xmlns:xlink="http://www.w3.org/1999/xlink" width="128" height="128"><defs><style type="text/css">@font-face { font-family: "feedback-iconfont"; src: url("//at.alicdn.com/t/font_1031158_u69w8yhxdu.woff2?t=1630033759944") format("woff2"), url("//at.alicdn.com/t/font_1031158_u69w8yhxdu.woff?t=1630033759944") format("woff"), url("//at.alicdn.com/t/font_1031158_u69w8yhxdu.ttf?t=1630033759944") format("truetype"); }
</style></defs><path d="M901.12 989.866667H122.88C73.386667 989.866667 34.133333 950.613333 34.133333 901.12V122.88C34.133333 73.386667 73.386667 34.133333 122.88 34.133333h778.24C950.613333 34.133333 989.866667 73.386667 989.866667 122.88v778.24c0 49.493333-39.253333 88.746667-88.746667 88.746667zM122.88 68.266667C92.16 68.266667 68.266667 92.16 68.266667 122.88v778.24C68.266667 931.84 92.16 955.733333 122.88 955.733333h778.24c30.72 0 54.613333-23.893333 54.613333-54.613333V122.88C955.733333 92.16 931.84 68.266667 901.12 68.266667H122.88z" fill="#333333" p-id="14725"></path><path d="M709.973333 382.293333c-47.786667 0-85.333333 37.546667-85.333333 85.333334s37.546667 85.333333 85.333333 85.333333 85.333333-37.546667 85.333334-85.333333-37.546667-85.333333-85.333334-85.333334zM512 704.853333c-27.306667 0-49.493333 22.186667-49.493333 49.493334 0 27.306667 22.186667 49.493333 49.493333 49.493333 27.306667 0 49.493333-22.186667 49.493333-49.493333 0-27.306667-22.186667-49.493333-49.493333-49.493334zM314.026667 378.88c-47.786667 0-85.333333 37.546667-85.333334 85.333333s37.546667 85.333333 85.333334 85.333334 85.333333-37.546667 85.333333-85.333334-39.253333-85.333333-85.333333-85.333333z" fill="#333333" p-id="14726"></path><path d="M901.12 51.2H122.88C83.626667 51.2 51.2 83.626667 51.2 122.88v778.24C51.2 940.373333 83.626667 972.8 122.88 972.8h778.24c39.253333 0 71.68-32.426667 71.68-71.68V122.88C972.8 83.626667 940.373333 51.2 901.12 51.2zM556.373333 228.693333c73.386667-49.493333 122.88-44.373333 138.24-42.666666 83.626667 8.533333 129.706667 66.56 134.826667 73.386666 11.946667 15.36 8.533333 35.84-6.826667 47.786667-6.826667 5.12-13.653333 6.826667-20.48 6.826667-10.24 0-20.48-5.12-27.306666-13.653334 0 0-32.426667-40.96-87.04-46.08l-6.826667-1.706666s-30.72-5.12-87.04 32.426666c-15.36 10.24-37.546667 6.826667-47.786667-8.533333-8.533333-15.36-5.12-37.546667 10.24-47.786667z m-360.106666 34.133334c1.706667-3.413333 49.493333-64.853333 134.826666-73.386667 15.36-3.413333 64.853333-6.826667 138.24 42.666667 15.36 10.24 20.48 32.426667 8.533334 47.786666-10.24 15.36-32.426667 20.48-47.786667 8.533334-54.613333-37.546667-85.333333-32.426667-87.04-32.426667H341.333333c-56.32 5.12-90.453333 47.786667-90.453333 47.786667-6.826667 8.533333-17.066667 13.653333-27.306667 13.653333-6.826667 0-15.36-1.706667-20.48-6.826667-13.653333-11.946667-17.066667-34.133333-6.826666-47.786666z m117.76 337.92c-75.093333 0-134.826667-61.44-134.826667-134.826667 0-75.093333 61.44-134.826667 134.826667-134.826667 75.093333 0 134.826667 61.44 134.826666 134.826667 0 73.386667-61.44 134.826667-134.826666 134.826667zM512 848.213333c-51.2 0-93.866667-42.666667-93.866667-93.866666s42.666667-93.866667 93.866667-93.866667 93.866667 42.666667 93.866667 93.866667-42.666667 93.866667-93.866667 93.866666z m197.973333-247.466666c-75.093333 0-134.826667-61.44-134.826666-134.826667 0-75.093333 61.44-134.826667 134.826666-134.826667 75.093333 0 134.826667 61.44 134.826667 134.826667 1.706667 73.386667-59.733333 134.826667-134.826667 134.826667z" fill="#333333" p-id="14727"></path></svg>